/* XPM */
static char * ingexSD_xpm[] = {
"32 32 3 1",
" 	c None",
".	c #D4CB3D",
"+	c #F80E2F",
"                                ",
"                                ",
"  .                             ",
"  .                             ",
"  .  . ..    .. .   ...  .   .  ",
"  .  ..  .  .  ..  .   .  . .   ",
"  .  .   .  .   .  .   .  ...   ",
"  .  .   .  .   .  .....   .    ",
"  .  .   .  .   .  .      ...   ",
"  .  .   .  .  ..  ..  .  . .   ",
"  .  .   .   .. .   ...  .   .  ",
"                .               ",
"            ....                ",
"                                ",
"     ++++++     +++++++++       ",
"   ++++++++++   ++++++++++      ",
"  +++++  ++++   +++   +++++     ",
"  +++       +   +++     ++++    ",
"  +++           +++      +++    ",
"  +++++         +++       +++   ",
"   ++++++++     +++       +++   ",
"    +++++++++   +++       +++   ",
"       +++++++  +++       +++   ",
"          ++++  +++       +++   ",
"           +++  +++      +++    ",
"  +        +++  +++     ++++    ",
"  +++++  ++++   +++   +++++     ",
"  ++++++++++    ++++++++++      ",
"    +++++++     +++++++++       ",
"                                ",
"                                ",
"                                "};
