/* XPM */
static char * qcplayer_xpm[] = {
"64 64 7 1",
" 	c None",
".	c #00FF00",
"+	c #000000",
"@	c #FFCC99",
"#	c #FF0000",
"$	c #FFFF00",
"%	c #0000FF",
"                                                                ",
"                             .....                              ",
"                           .........                            ",
"                          ...........                           ",
"                          ............                          ",
"                         ..............                         ",
"                         ..............                         ",
"                         ..............                         ",
"                        ...............                         ",
"                         ..............                         ",
"                         ..............                         ",
"                         .............                          ",
"                          ............                          ",
"          +               ...........             @@@@@@@       ",
"       +++++++              ........            @@@@@@@@@@      ",
"     ++++++++++               ...              @@@@@@@@@@@@     ",
"     +++++++++++                               @@@@@@@@@@@@     ",
"    +++++++++++++                             @@@@@@@@@@@@@@    ",
"   ++++++++++++++                             @@@@@@@@@@@@@@    ",
"   +++++++++++++++                            @@@@@@@@@@@@@@    ",
"   +++++++++++++++                            @@@@@@@@@@@@@@    ",
"   +++++++++++++++                            @@@@@@@@@@@@@@    ",
"   +++++++++++++++                            @@@@@@@@@@@@@@    ",
"   ++++++++++++++                              @@@@@@@@@@@@     ",
"    +++++++++++++                              @@@@@@@@@@@@     ",
"     +++++++++++                                @@@@@@@@@@      ",
"      +++++++++                                   @@@@@@        ",
"       +++++++                                                  ",
"                                                                ",
"                                                                ",
"                                                                ",
"                                                                ",
"                                                                ",
"                                                                ",
"                                                   ###          ",
"                                                 ########       ",
"                                                ##########      ",
"                                               ############     ",
"        $$$$$$$                               #############     ",
"       $$$$$$$$$                              ##############    ",
"      $$$$$$$$$$$                            ###############    ",
"     $$$$$$$$$$$$$                           ###############    ",
"     $$$$$$$$$$$$$$                          ###############    ",
"     $$$$$$$$$$$$$$                           ##############    ",
"    $$$$$$$$$$$$$$$                           ##############    ",
"    $$$$$$$$$$$$$$$                           #############     ",
"    $$$$$$$$$$$$$$$                            ###########      ",
"     $$$$$$$$$$$$$$             %%%%%           #########       ",
"     $$$$$$$$$$$$$            %%%%%%%%%           #####         ",
"      $$$$$$$$$$$            %%%%%%%%%%%                        ",
"       $$$$$$$$$$           %%%%%%%%%%%%%                       ",
"        $$$$$$$             %%%%%%%%%%%%%                       ",
"                           %%%%%%%%%%%%%%                       ",
"                           %%%%%%%%%%%%%%%                      ",
"                           %%%%%%%%%%%%%%%                      ",
"                           %%%%%%%%%%%%%%%                      ",
"                           %%%%%%%%%%%%%%                       ",
"                            %%%%%%%%%%%%%                       ",
"                            %%%%%%%%%%%%%                       ",
"                             %%%%%%%%%%%                        ",
"                              %%%%%%%%%                         ",
"                                %%%%                            ",
"                                                                ",
"                                                                "};
