/* XPM */
static char *activity[]={
"32 32 3 1",
". c None",
"a c #008080",
"# c #00c000",
"................................",
"................................",
"................................",
"................................",
"................................",
".......#################........",
"......###################.......",
".....##aaaaaaaaaaaaaaaaa##......",
"....##aaaaa##aaaaaaaaaaaa##.....",
"....##aaaa#aa#aaaaaaaaaaa##.....",
"....##aaaa#aa#aaaaaaaaaaa##.....",
"....##aaa#aaaa#aaaaaaaaaa##.....",
"....##aaa#aaaa#aaaaaaaaaa##.....",
"....##aa#aaaaaa#aaaaaaaaa##.....",
"....##aa#aaaaaa#aaaaaaaaa##.....",
"....####aaaaaaa#aaaaaaa####.....",
"....##aaaaaaaaa#aaaaaa#aa##.....",
"....##aaaaaaaaa#aaaaaa#aa##.....",
"....##aaaaaaaaaa#aaaa#aaa##.....",
"....##aaaaaaaaaa#aaaa#aaa##.....",
"....##aaaaaaaaaaa#aa#aaaa##.....",
"....##aaaaaaaaaaa#aa#aaaa##.....",
"....##aaaaaaaaaaaa##aaaaa##.....",
".....##aaaaaaaaaaaaaaaaa##......",
"......###################.......",
".......#################........",
"................................",
"................................",
"................................",
"................................",
"................................",
"................................"};
