/* XPM */
static char *exclamation[]={
"32 32 3 1",
". c None",
"# c #000000",
"a c #ffff00",
"................................",
"................................",
"................................",
"................................",
"...............#................",
"..............#a#...............",
"..............#a#...............",
".............#aaa#..............",
".............#aaa#..............",
"............#aaaaa#.............",
"............#aa#aa#.............",
"............#a###a#.............",
"...........#aa###aa#............",
"...........#aa###aa#............",
"..........#aaa###aaa#...........",
"..........#aaa###aaa#...........",
".........#aaaa###aaaa#..........",
".........#aaaa###aaaa#..........",
".........#aaaaa#aaaaa#..........",
"........#aaaaaaaaaaaaa#.........",
"........#aaaaaa#aaaaaa#.........",
".......#aaaaaa###aaaaaa#........",
".......#aaaaaa###aaaaaa#........",
"......#aaaaaaaa#aaaaaaaa#.......",
"......#aaaaaaaaaaaaaaaaa#.......",
".......#################........",
"................................",
"................................",
"................................",
"................................",
"................................",
"................................"};
