/* XPM */
static char *happy[]={
"32 32 5 1",
". c None",
"# c #000000",
"a c #00c000",
"b c #00ffff",
"c c #ffffff",
"................................",
"............#######.............",
".........###aaaaaaa###..........",
"........#aaaaaaaaaaaaa#.........",
"......##aaaaaaaaaaaaaaa##.......",
".....#aaaaaaaaaaaaaaaaaaa#......",
"....#aaaaaaaaaaaaaaaaaaaaa#.....",
"....#aaaaa#aaaaaaaaa#aaaaa#.....",
"...#aaaaa#b#aaaaaaa#b#aaaaa#....",
"..#aaaaa#bbb#aaaaa#bbb#aaaaa#...",
"..#aaaaaa#b#aaaaaaa#b#aaaaaa#...",
"..#aaaaaaa#aaaaaaaaa#aaaaaaa#...",
".#aaaaaaaaaaaaaaaaaaaaaaaaaaa#..",
".#aaaaaaaaaaaaaaaaaaaaaaaaaaa#..",
".#aaaaaaaaaaaaaaaaaaaaaaaaaaa#..",
".#aaaaaaaaaaaaaaaaaaaaaaaaaaa#..",
".#aaaaa##aaaaaaaaaaaaa##aaaaa#..",
".#aaaaa#c#aaaaaaaaaaa#c#aaaaa#..",
".#aaaaa#cc#aaaaaaaaa#cc#aaaaa#..",
"..#aaaaa#cc##aaaaa##cc#aaaaa#...",
"..#aaaaaa#ccc#####ccc#aaaaaa#...",
"..#aaaaaaa#ccccc##cc#aaaaaaa#...",
"...#aaaaaaa##ccc####aaaaaaa#....",
"....#aaaaaaaa#####aaaaaaaa#.....",
"....#aaaaaaaaaaaaaaaaaaaaa#.....",
".....##aaaaaaaaaaaaaaaaa##......",
"......##aaaaaaaaaaaaaaa##.......",
"........#aaaaaaaaaaaaa#.........",
".........###aaaaaaa###..........",
"............#######.............",
"................................",
"................................"};
