/* XPM */

/***************************************************************************
 *   Copyright (C) 2008 British Broadcasting Corporation              *
 *   - all rights reserved.                                                *
 *                                                                         *
 *   This program is free software; you can redistribute it and/or modify  *
 *   it under the terms of the GNU General Public License as published by  *
 *   the Free Software Foundation; either version 2 of the License, or     *
 *   (at your option) any later version.                                   *
 *                                                                         *
 *   This program is distributed in the hope that it will be useful,       *
 *   but WITHOUT ANY WARRANTY; without even the implied warranty of        *
 *   MERCHANTABILITY or FITNESS FOR A PARTICULAR PURPOSE.  See the         *
 *   GNU General Public License for more details.                          *
 *                                                                         *
 *   You should have received a copy of the GNU General Public License     *
 *   along with this program; if not, write to the                         *
 *   Free Software Foundation, Inc.,                                       *
 *   59 Temple Place - Suite 330, Boston, MA  02111-1307, USA.             *
 ***************************************************************************/

static const char * ingexgui_xpm[] = {
"32 32 16 1",
" 	c #000000",
".	c #800000",
"+	c #008000",
"@	c #808000",
"#	c #000080",
"$	c #800080",
"%	c #008080",
"&	c #C0C0C0",
"*	c #808080",
"=	c #FF0000",
"-	c #00FF00",
";	c #FFFF00",
">	c #0000FF",
",	c #FF00FF",
"'	c #00FFFF",
")	c #FFFFFF",
"                                ",
"                                ",
"                                ",
"                                ",
"                                ",
"                                ",
"                                ",
"                                ",
"                                ",
"       ))))          ))))       ",
"      ))))))        ))))))      ",
"     )))==)))      )))==)))     ",
"    )))====)))    )))====)))    ",
"    ))======))    ))======))    ",
"    ))======))    ))======))    ",
"    ))======))    ))======))    ",
"    )))====)))    )))====)))    ",
"     )))==)))      )))==)))     ",
"      ))))))))))))))))))))      ",
"       ))))))))))))))))))       ",
"                                ",
"                                ",
"                                ",
"                                ",
"                                ",
"                                ",
"                                ",
"                                ",
"                                ",
"                                ",
"                                ",
"                                "};
