/* XPM */
static char *paused[]={
"32 32 3 1",
"a c None",
". c None",
"# c #00ffff",
"................................",
"................................",
"................................",
"................................",
"................................",
"......#######......#######......",
"......#######......#######......",
"......#######......#######......",
"......#######......#######......",
"......#######......#######......",
"......#######......#######......",
"......#######......#######......",
"......#######......#######......",
"......#######......#######......",
"......#######......#######......",
"......#######......#######......",
"......#######......#######......",
"......#######......#######......",
"......#######......#######......",
"......#######......#######......",
"......#######......#######......",
"......#######......#######......",
"......#######......#######......",
"......#######......#######......",
"......#######......#######......",
"......#######......#######......",
"................................",
"................................",
"................................",
"................................",
"................................",
"................................"};
