/* XPM */
static char *play_backwards[]={
"32 32 2 1",
". c None",
"a c #ff00ff",
"................................",
"................................",
"................................",
"................................",
"................................",
".........................a......",
".......................aaa......",
".....................aaaaa......",
"...................aaaaaaa......",
".................aaaaaaaaa......",
"...............aaaaaaaaaaa......",
".............aaaaaaaaaaaaa......",
"...........aaaaaaaaaaaaaaa......",
".........aaaaaaaaaaaaaaaaa......",
".......aaaaaaaaaaaaaaaaaaa......",
"......aaaaaaaaaaaaaaaaaaaa......",
".......aaaaaaaaaaaaaaaaaaa......",
".........aaaaaaaaaaaaaaaaa......",
"...........aaaaaaaaaaaaaaa......",
".............aaaaaaaaaaaaa......",
"...............aaaaaaaaaaa......",
".................aaaaaaaaa......",
"...................aaaaaaa......",
".....................aaaaa......",
".......................aaa......",
".........................a......",
"................................",
"................................",
"................................",
"................................",
"................................",
"................................"};
