/* XPM */
static char *play[]={
"32 32 2 1",
". c None",
"# c #00ff00",
"................................",
"................................",
"................................",
"................................",
"................................",
"......#.........................",
"......###.......................",
"......#####.....................",
"......#######...................",
"......#########.................",
"......###########...............",
"......#############.............",
"......###############...........",
"......#################.........",
"......###################.......",
"......####################......",
"......###################.......",
"......#################.........",
"......###############...........",
"......#############.............",
"......###########...............",
"......#########.................",
"......#######...................",
"......#####.....................",
"......###.......................",
"......#.........................",
"................................",
"................................",
"................................",
"................................",
"................................",
"................................"};
