/* XPM */
static char *question[]={
"32 32 3 1",
". c None",
"a c #000000",
"# c #ffff00",
"................................",
"................................",
"................................",
"................................",
"................................",
"............#######.............",
"..........###########...........",
".........####aaaa#####..........",
"........####aa##aa#####.........",
".......####aa####aa#####........",
"......#####a#####aa######.......",
"......#####aaa###aa######.......",
".....#######aa##aa########......",
".....###########aa########......",
".....##########aa#########......",
".....#########aa##########......",
".....#########aa##########......",
".....#########aa##########......",
".....#########aa##########......",
"......###################.......",
"......########aa#########.......",
".......######aaaa#######........",
"........#####aaaa######.........",
".........#####aa######..........",
"..........###########...........",
"............#######.............",
"................................",
"................................",
"................................",
"................................",
"................................",
"................................"};
