/* XPM */
static char *small_disabled[]={
"16 16 2 1",
"# c None",
". c #000000",
"................",
".##############.",
".##############.",
".##############.",
".##############.",
".##############.",
".##############.",
".##############.",
".##############.",
".##############.",
".##############.",
".##############.",
".##############.",
".##############.",
".##############.",
"................"};
