/* XPM */
static char *small_enabled[]={
"16 16 2 1",
". c #000000",
"# c #ffc0c0",
"................",
".##############.",
".###.....######.",
".###......#####.",
".###..##...####.",
".###..###..####.",
".###..###..####.",
".###..##...####.",
".###......#####.",
".###.....######.",
".###..#...#####.",
".###..##...####.",
".###..###...###.",
".###..####...##.",
".##############.",
"................"};
